<svg height="512" viewBox="0 0 64 64" width="512" xmlns="http://www.w3.org/2000/svg"><g id="Bitcoin-2" data-name="Bitcoin"><path d="m32 2a17 17 0 1 0 17 17 17 17 0 0 0 -17-17zm0 30a13 13 0 1 1 13-13 13 13 0 0 1 -13 13z" fill="#57a4ff"/><path d="m28 42h8a0 0 0 0 1 0 0v16a4 4 0 0 1 -4 4 4 4 0 0 1 -4-4v-16a0 0 0 0 1 0 0z" fill="#57a4ff"/><g fill="#004fac"><path d="m33 28v-2h6a1 1 0 0 0 1-1v-6a1 1 0 0 0 -1-1h-3v-5a1 1 0 0 0 -1-1h-2v-2a1 1 0 0 0 -2 0v2h-1v-2a1 1 0 0 0 -2 0v2h-1a1 1 0 0 0 -1 1v12a1 1 0 0 0 1 1h1v2a1 1 0 0 0 2 0v-2h1v2a1 1 0 0 0 2 0zm-5-14h6v4h-6zm0 10v-4h10v4z"/><path d="m46 19a14 14 0 1 0 -14 14 14.015 14.015 0 0 0 14-14zm-26 0a12 12 0 1 1 12 12 12.013 12.013 0 0 1 -12-12z"/><path d="m50 19a18 18 0 1 0 -21 17.729v4.271h-1a1 1 0 0 0 -1 1v16a5 5 0 0 0 10 0v-16a1 1 0 0 0 -1-1h-1v-4.271a18.014 18.014 0 0 0 15-17.729zm-34 0a16 16 0 1 1 16 16 16.019 16.019 0 0 1 -16-16zm19 39a3 3 0 0 1 -6 0v-15h6zm-2-21v4h-2v-4z"/><path d="m31 44a1 1 0 0 0 -1 1v5a1 1 0 0 0 2 0v-5a1 1 0 0 0 -1-1z"/><path d="m31 52a1 1 0 0 0 -1 1v1a1 1 0 0 0 2 0v-1a1 1 0 0 0 -1-1z"/></g></g></svg>